<svg clip-rule="evenodd" fill-rule="evenodd" stroke-linejoin="round" stroke-miterlimit="2" viewBox="0 0 1181.1 1181.1" xmlns="http://www.w3.org/2000/svg" width="2500" height="2500"><path d="M0 0h1181.1v1181.1H0z" fill="none"/><g fill-rule="nonzero"><path d="M616.782 57.768c-49.63-.024-57.39.52-89.799 6.189-37.004 6.472-71.976 15.153-104.929 25.665-.059 3.342-.248 6.638-.248 9.992 0 9.827.26 19.606.733 29.315.177 3.437.507 6.815.732 10.228.425 6.295.815 12.579 1.429 18.815.378 3.803.91 7.547 1.358 11.327.685 5.81 1.347 11.634 2.209 17.397.579 3.898 1.287 7.737 1.949 11.599.933 5.527 1.866 11.067 2.952 16.547.473 2.35 1.004 4.69 1.524 7.028 32.268-5.552 65.398-8.622 99.26-8.622h.011c8.103 0 16.182.165 24.213.496h.012c8.031.33 16.016.826 23.964 1.476h.012c7.937.65 15.839 1.465 23.681 2.433h.012a583.8 583.8 0 0 1 23.398 3.378h.011a571.702 571.702 0 0 1 23.08 4.3h.011a583.22 583.22 0 0 1 22.76 5.196h.012c7.523 1.878 15 3.91 22.405 6.083h.012a574.742 574.742 0 0 1 22.027 6.945c174.862 58.948 312.449 198.897 368.208 375.223 55.583-163.913 33.071-305.668-68.539-408.46-73.016-73.866-179.29-123.543-313.653-146.61-30.921-5.303-40.086-5.917-88.795-5.94z" fill="#1f92cd"/><path d="M614.007 322.677c-48.52 0-95.398 6.744-139.949 19.122.862 1.913 1.7 3.838 2.587 5.74 1.901 4.063 3.815 8.114 5.799 12.13 2.079 4.204 4.228 8.362 6.401 12.507 2.138 4.063 4.276 8.126 6.497 12.142 2.22 3.98 4.511 7.913 6.814 11.847 2.327 3.968 4.642 7.937 7.052 11.846 2.456 3.98 5.02 7.902 7.582 11.823 2.445 3.756 4.866 7.523 7.394 11.22a368.879 368.879 0 0 0 3.083 4.406 484.69 484.69 0 0 0-4.95-6.886c63.402 86.893 100.82 193.948 100.82 309.755 0 40.618-4.607 80.173-13.335 118.146a519.142 519.142 0 0 1-10.075 37.429 526.81 526.81 0 0 1-12.697 36.283 530.39 530.39 0 0 1-15.236 35.02 522.38 522.38 0 0 1-17.634 33.626 520.892 520.892 0 0 1-19.925 32.161c-7.783 18.307-16.594 36.07-26.315 53.244.792.449 1.347.626 2.162 1.122 21.153 15.272 65.988 30.342 71.433 31.984 2.929.91 16.31 2.138 29.728 2.729 3.898.555 10.547 1.015 16.512 1.24 5.976.224 11.267.212 12.484-.201 11.917 1.193 37.275-9.614 46.358-13.843 8.445-3.956 16.63-8.409 24.59-13.11 15.91-9.401 30.863-19.819 44.906-29.456 22.287-15.237 52.134-36.52 58.24-42.414 23.705-16.878 55.807-56.456 72.142-72.79.756-.757 2.444-1.997 4.57-5.198s5.528-7.464 10.075-12.59c30.33-34.17 66.06-80.976 89.209-116.87 9.177-14.232 17.74-28.323 25.925-42.343 1.004-1.724 2.067-3.448 3.047-5.173 7.512-13.015 14.48-25.913 21.13-38.74 1.394-2.693 2.811-5.386 4.157-8.067a863.336 863.336 0 0 0 17.28-36.236 828.05 828.05 0 0 0 4.228-9.638c5.02-11.586 9.72-23.078 13.996-34.464a744.031 744.031 0 0 0 7.69-21.402c-85.217-175.688-265.406-296.101-473.775-296.101zM527.645 435.99c.248.343.496.697.744 1.04l-.024.011c-.248-.354-.484-.708-.732-1.05z" fill="#af6c61"/><path d="M422.054 89.622a714.94 714.94 0 0 0-15.425 5.126c-.33.106-.65.236-.992.354a647.625 647.625 0 0 0-37.17 14.209 641.62 641.62 0 0 0-10.77 4.606 598.933 598.933 0 0 0-19.43 8.976 606.786 606.786 0 0 0-13.583 6.815 549.952 549.952 0 0 0-13.878 7.43c-.885.496-1.724 1.027-2.61 1.523a587.405 587.405 0 0 0 18.555 112.795c8.634-3.295 17.362-6.39 26.185-9.283s17.729-5.563 26.74-8.044c18-4.948 36.355-9.035 55.016-12.26-.52-2.338-1.051-4.677-1.524-7.027-1.086-5.48-2.02-11.02-2.952-16.547-.662-3.862-1.37-7.7-1.95-11.599-.85-5.763-1.523-11.586-2.208-17.397-.449-3.78-.98-7.524-1.358-11.327-.614-6.236-1.004-12.52-1.43-18.815-.224-3.413-.554-6.791-.731-10.228a603.216 603.216 0 0 1-.733-29.315c0-3.354.201-6.65.248-9.992z" fill="#1d66a5"/><path d="M326.751 251.456a579.797 579.797 0 0 0-28.665 11.847c-9.413 4.193-18.709 8.622-27.862 13.287s-18.165 9.567-27.036 14.705c-8.858 5.126-17.574 10.488-26.137 16.063s-16.973 11.362-25.205 17.374a580.79 580.79 0 0 0-47.41 38.527 590.38 590.38 0 0 0-22.098 21.06c-5.35 28.216-7.287 57.566-5.74 87.944 1.76 34.346 2.421 39.91 8.197 68.728 4.866 24.224 11.268 48.059 19.004 71.87a523.179 523.179 0 0 1 26.398-46.44c.212-.343.437-.686.65-1.028a525.564 525.564 0 0 1 30.188-42.343c.354-.449.697-.898 1.051-1.346a509.414 509.414 0 0 1 10.866-13.24c.118-.142.248-.296.378-.437a533.587 533.587 0 0 1 22.807-25.11c.402-.414.792-.84 1.193-1.253 3.626-3.72 7.311-7.37 11.044-10.984 1.204-1.157 2.42-2.303 3.637-3.449a527.19 527.19 0 0 1 35.15-30.555c1.842-1.464-13.713 45.414-11.847 43.973 3.58-2.764 7.181-5.516 10.843-8.197 2.256-1.642 4.547-3.236 6.827-4.855a536.486 536.486 0 0 1 17.515-11.893c2.859-1.855 5.729-3.72 8.622-5.528 3.284-2.043 6.59-4.04 9.922-6.012a562.18 562.18 0 0 1 10.015-5.751c2.918-1.642 5.8-3.32 8.752-4.914.024 0 .036-.012.06-.023 3.992-2.15 108.696 65.503 112.759 63.46-78.319-80.54-121.925-200.657-133.878-245.48z" fill="#da7960"/><path d="M146.433 308.314c-22.713 50.256-32.823 105.19-29.835 163.949 1.76 34.346 2.421 39.91 8.197 68.728 4.866 24.224 11.268 48.059 19.004 71.87 6.567 20.244 14.244 40.464 23.043 60.874 1.17 2.705 2.374 5.41 3.579 8.126 2.41 5.41 4.842 10.819 7.417 16.264 3.65 7.7 7.43 15.425 11.433 23.208 1.713 3.33 3.544 6.709 5.315 10.063 3.343 6.295 6.756 12.626 10.323 19.004a780.26 780.26 0 0 0 5.327 9.425c5.315 9.272 10.771 18.579 16.582 28.051a1103.204 1103.204 0 0 0 25.264 39.201c8.67 12.862 17.599 25.488 26.728 37.854s18.485 24.473 28.016 36.296a1047.806 1047.806 0 0 0 29.162 34.547 974.56 974.56 0 0 0 30.094 32.61 925.111 925.111 0 0 0 30.898 30.484c10.417 9.78 20.929 19.181 31.523 28.158a733.562 733.562 0 0 0 31.96 25.641c4.879 3.697 9.26 7.229 12.39 9.957s5.35 3.91 5.22 4.358c1.477 1.217 1.63 1.051 2.93 2.043 2.315 1.654 6.177 5.21 7.902 6.024 1.547 1.547 3.614 1.665 5.503 2.764.874.224 2.044.661 3.355 1.216l.189-.224c-.06.07-.118.153-.177.224 2.716 1.122 6.413 3.107 10.145 5.209 9.72-17.173 18.544-34.937 26.315-53.244h-.012a480.941 480.941 0 0 1-8.208 11.858c2.787-3.91 5.54-7.854 8.208-11.858 26.835-63.142 41.681-132.59 41.681-205.523 0-178.76-89.232-336.602-225.495-431.669-60.047-41.905-129.248-71.574-203.976-85.488zm378.755 735.696zm-8.563 11.598c-3 3.969-6.06 7.878-9.177 11.74a514.137 514.137 0 0 0 9.177-11.74z" fill="#64c22e"/><path d="M308.196 138.661c-16.677 9.449-32.598 19.441-47.303 30.248-26.598 19.547-67.689 61.453-84.767 86.41-27.048 39.566-45.012 82.76-53.788 129 7.181-7.206 14.551-14.233 22.099-21.06a581.016 581.016 0 0 1 72.614-55.901 584.353 584.353 0 0 1 26.137-16.063c8.87-5.138 17.882-10.04 27.036-14.705s18.449-9.094 27.862-13.287a579.797 579.797 0 0 1 28.665-11.847 587.405 587.405 0 0 1-18.555-112.795z" fill="#5c5c5c"/></g><path d="M534.232 1030.998c26.825-63.144 41.681-132.598 41.681-205.53 0-124.321-43.159-238.522-115.284-328.53a529.716 529.716 0 0 0-28.17-32.373C371.75 387.1 337.19 290.588 326.756 251.46a575.418 575.418 0 0 1 52.918-17.328 576.665 576.665 0 0 1 55.022-12.256c32.27-5.562 65.397-8.624 99.255-8.624h.012c8.111 0 16.183.165 24.213.494h.012c8.03.33 16.02.825 23.962 1.477h.012a583.707 583.707 0 0 1 23.688 2.435h.012a580.01 580.01 0 0 1 23.394 3.376h.012a577.165 577.165 0 0 1 23.084 4.297h.011a576.67 576.67 0 0 1 22.754 5.2h.012a575.398 575.398 0 0 1 22.406 6.079h.012a574.537 574.537 0 0 1 22.034 6.946c174.856 58.954 312.437 198.902 368.197 375.218-85.21-175.68-265.404-296.093-473.766-296.093-48.517 0-95.405 6.743-139.954 19.122.866 1.911 1.708 3.836 2.594 5.737 1.895 4.067 3.808 8.12 5.792 12.134 2.078 4.203 4.235 8.355 6.41 12.5 2.132 4.068 4.268 8.13 6.493 12.14 2.214 3.99 4.514 7.921 6.818 11.853 2.322 3.965 4.631 7.936 7.043 11.841 2.463 3.986 5.026 7.9 7.581 11.822 2.445 3.757 4.87 7.528 7.397 11.225.643.94 1.295 1.87 1.952 2.798a644.315 644.315 0 0 0-3.819-5.282 524.82 524.82 0 0 1 5.72 7.995c.11.16.218.32.328.476h.005c59.722 85.34 94.764 189.221 94.764 301.288 0 40.624-4.608 80.17-13.33 118.146a521.79 521.79 0 0 1-10.077 37.433 521.932 521.932 0 0 1-27.929 71.294 524.875 524.875 0 0 1-17.633 33.636 527.8 527.8 0 0 1-19.935 32.16z" fill="#fff"/><path d="M528.04 436.565c-.133-.193-.265-.387-.399-.58h.006c.247.351.495.701.744 1.05l-.019.005z" fill="#ebebeb"/></svg>